<?xml version="1.0" encoding="UTF-8"?>
<svg width="80px" height="80px" viewBox="0 0 80 80" version="1.1" xmlns="http://www.w3.org/2000/svg" xmlns:xlink="http://www.w3.org/1999/xlink">
    <!-- Generator: Sketch 50 (54983) - http://www.bohemiancoding.com/sketch -->
    <title>Icons/Color/Glucose</title>
    <desc>Created with Sketch.</desc>
    <defs></defs>
    <g id="Icons/Color/Glucose" stroke="none" stroke-width="1" fill="none" fill-rule="evenodd">
        <g id="Glucose">
            <circle id="Combined-Shape" fill="#FF7979" cx="40" cy="40" r="40"></circle>
            <path d="M40,66.7777778 C30.4270643,66.7777778 22.6666667,59.0173801 22.6666667,49.4444444 C22.6666667,43.0624873 28.4444444,31.0254503 40,13.3333333 C51.5555556,31.0254503 57.3333333,43.0624873 57.3333333,49.4444444 C57.3333333,59.0173801 49.5729357,66.7777778 40,66.7777778 Z M40,63.8888889 C48.1001763,63.8888889 54.6666667,57.3223986 54.6666667,49.2222222 C54.6666667,43.8221047 49.7777778,33.6369195 40,18.6666667 C30.2222222,33.6369195 25.3333333,43.8221047 25.3333333,49.2222222 C25.3333333,57.3223986 31.8998237,63.8888889 40,63.8888889 Z M41.3432148,61.3363982 C34.7157979,61.3363982 28.5667221,55.0222521 28.5667221,48.3948351 L31.1446661,48.3948351 C31.5016178,51.3612256 32.613592,53.6461375 34.4805889,55.2495707 C36.3475857,56.8530039 38.6351277,57.9912874 41.3432148,58.6644212 L41.3432148,61.3363982 Z" id="Combined-Shape" fill="#FFFFFF"></path>
        </g>
    </g>
</svg>