<?xml version="1.0" encoding="UTF-8"?>
<svg width="80px" height="80px" viewBox="0 0 80 80" version="1.1" xmlns="http://www.w3.org/2000/svg" xmlns:xlink="http://www.w3.org/1999/xlink">
    <!-- Generator: Sketch 50 (54983) - http://www.bohemiancoding.com/sketch -->
    <title>Icons/Color/Heart_Rate</title>
    <desc>Created with Sketch.</desc>
    <defs></defs>
    <g id="Icons/Color/Heart_Rate" stroke="none" stroke-width="1" fill="none" fill-rule="evenodd">
        <g id="Heart-Rate">
            <circle id="Oval-7" fill="#FFB1EE" cx="40" cy="40" r="40"></circle>
            <path d="M56.5483507,45.1521099 L46.1601042,45.1521099 L44.6400402,47.3151983 L41.1949614,29.9746002 L37.8188698,48.197198 L35.4109444,37.5231576 L32.969833,45.1521099 L22.5628215,45.1521099 C19.8745549,41.9041355 18.0502053,39.0833193 17.5633607,36.578721 C16.3207674,30.1861328 20.2367258,24.0469275 26.3098986,22.8664223 C32.3825558,21.6860174 38.3126646,25.9104279 39.5559483,30.9691117 C40.7992723,25.9104613 46.7291789,21.6860648 52.801592,22.8664223 C58.8745509,24.046886 62.7903358,30.1860575 61.5477425,36.5786457 C61.0608953,39.0832577 59.2365717,41.9040994 56.5483507,45.1521099 Z M55.0895322,46.8636249 C50.9878633,51.5548647 45.3945651,57.0966167 39.5558504,63.7808146 C33.7169515,57.0966093 28.1234702,51.5548615 24.0216823,46.8636249 L34.2377103,46.8636249 L35.1140738,44.1148213 L37.9840785,56.8190256 L41.252586,39.1497686 L43.7470837,51.6649569 L47.0839923,46.8636249 L55.0895322,46.8636249 Z" id="Combined-Shape" fill="#FFFFFF"></path>
        </g>
    </g>
</svg>