<?xml version="1.0" encoding="UTF-8"?>
<svg width="80px" height="80px" viewBox="0 0 80 80" version="1.1" xmlns="http://www.w3.org/2000/svg" xmlns:xlink="http://www.w3.org/1999/xlink">
    <!-- Generator: Sketch 50 (54983) - http://www.bohemiancoding.com/sketch -->
    <title>Icons/Color/Help</title>
    <desc>Created with Sketch.</desc>
    <defs></defs>
    <g id="Icons/Color/Help" stroke="none" stroke-width="1" fill="none" fill-rule="evenodd">
        <g id="Help">
            <circle id="Oval-7" fill="#9386F4" cx="40" cy="40" r="40"></circle>
            <path d="M36.72,49.02 L36.72,45.72 C36.72,44.8399956 36.7699995,44.0900031 36.87,43.47 C36.9700005,42.8499969 37.1499987,42.2900025 37.41,41.79 C37.6700013,41.2899975 38.0099979,40.8100023 38.43,40.35 C38.8500021,39.8899977 39.359997,39.3400032 39.96,38.7 L44.58,34.02 C45.580005,33.019995 46.08,31.720008 46.08,30.12 C46.08,28.5599922 45.5700051,27.2900049 44.55,26.31 C43.5299949,25.3299951 42.2400078,24.84 40.68,24.84 C38.9999916,24.84 37.6200054,25.4099943 36.54,26.55 C35.4599946,27.6900057 34.8400008,29.0799918 34.68,30.72 L27,30.12 C27.2400012,28.1999904 27.7399962,26.4900075 28.5,24.99 C29.2600038,23.4899925 30.2499939,22.2200052 31.47,21.18 C32.6900061,20.1399948 34.099992,19.3500027 35.7,18.81 C37.300008,18.2699973 39.0599904,18 40.98,18 C42.780009,18 44.4499923,18.2599974 45.99,18.78 C47.5300077,19.3000026 48.8699943,20.0499951 50.01,21.03 C51.1500057,22.0100049 52.0399968,23.2299927 52.68,24.69 C53.3200032,26.1500073 53.64,27.8199906 53.64,29.7 C53.64,31.0200066 53.4600018,32.179995 53.1,33.18 C52.7399982,34.180005 52.260003,35.0999958 51.66,35.94 C51.059997,36.7800042 50.3700039,37.5799962 49.59,38.34 C48.8099961,39.1000038 47.9800044,39.8999958 47.1,40.74 C46.5399972,41.2600026 46.060002,41.719998 45.66,42.12 C45.259998,42.520002 44.9300013,42.9299979 44.67,43.35 C44.4099987,43.7700021 44.2200006,44.2499973 44.1,44.79 C43.9799994,45.3300027 43.92,45.9799962 43.92,46.74 L43.92,49.02 L36.72,49.02 Z M35.52,57.36 C35.52,56.0799936 35.9899953,54.9800046 36.93,54.06 C37.8700047,53.1399954 38.9999934,52.68 40.32,52.68 C41.6000064,52.68 42.7199952,53.1199956 43.68,54 C44.6400048,54.8800044 45.12,55.9599936 45.12,57.24 C45.12,58.5200064 44.6500047,59.6199954 43.71,60.54 C42.7699953,61.4600046 41.6400066,61.92 40.32,61.92 C39.6799968,61.92 39.0700029,61.8000012 38.49,61.56 C37.9099971,61.3199988 37.4000022,61.000002 36.96,60.6 C36.5199978,60.199998 36.1700013,59.7200028 35.91,59.16 C35.6499987,58.5999972 35.52,58.0000032 35.52,57.36 Z" id="?" fill="#FFFFFF"></path>
        </g>
    </g>
</svg>