<?xml version="1.0" encoding="UTF-8"?>
<svg width="80px" height="80px" viewBox="0 0 80 80" version="1.1" xmlns="http://www.w3.org/2000/svg" xmlns:xlink="http://www.w3.org/1999/xlink">
    <!-- Generator: Sketch 50 (54983) - http://www.bohemiancoding.com/sketch -->
    <title>Icons/Color/Home</title>
    <desc>Created with Sketch.</desc>
    <defs>
        <circle id="path-1" cx="40" cy="40" r="40"></circle>
    </defs>
    <g id="Icons/Color/Home" stroke="none" stroke-width="1" fill="none" fill-rule="evenodd">
        <g id="Home">
            <mask id="mask-2" fill="white">
                <use xlink:href="#path-1"></use>
            </mask>
            <use id="Mask" fill="#81B6FC" xlink:href="#path-1"></use>
            <path d="M25.8444914,59.5879302 L34.5910271,59.5879302 C35.6955966,59.5879302 36.5910271,58.6924997 36.5910271,57.5879302 L36.5910271,48.5854768 C36.5910271,47.4809073 37.4864576,46.5854768 38.5910271,46.5854768 L42.3291048,46.5854768 C43.4336743,46.5854768 44.3291048,47.4809073 44.3291048,48.5854768 L44.3291048,57.5879302 C44.3291048,58.6924997 45.2245353,59.5879302 46.3291048,59.5879302 L55.1102377,59.5879302 C56.2148072,59.5879302 57.1102377,58.6924997 57.1102377,57.5879302 L57.1102377,42.3727551 L61.2063085,42.3727551 C62.310878,42.3727551 63.2063085,41.4773246 63.2063085,40.3727551 C63.2063085,39.7977816 62.958852,39.2506205 62.5270921,38.8709127 L41.5876516,20.4558851 C40.8259094,19.7859769 39.6832816,19.7924435 38.9291705,20.4709305 L18.4616058,38.8859581 C17.6404704,39.624748 17.5737163,40.8893172 18.3125062,41.7104526 C18.6917981,42.1320203 19.2322215,42.3727551 19.7993032,42.3727551 L23.8444914,42.3727551 L23.8444914,57.5879302 C23.8444914,58.6924997 24.7399219,59.5879302 25.8444914,59.5879302 Z" id="Path-7" fill="#FFFFFF" mask="url(#mask-2)"></path>
        </g>
    </g>
</svg>