<?xml version="1.0" encoding="UTF-8"?>
<svg width="28px" height="6px" viewBox="0 0 28 6" version="1.1" xmlns="http://www.w3.org/2000/svg" xmlns:xlink="http://www.w3.org/1999/xlink">
    <!-- Generator: Sketch 50 (54983) - http://www.bohemiancoding.com/sketch -->
    <title>Icons/Color/More</title>
    <desc>Created with Sketch.</desc>
    <defs>
        <path d="M3,6 C1.34314575,6 0,4.65685425 0,3 C0,1.34314575 1.34314575,0 3,0 C4.65685425,0 6,1.34314575 6,3 C6,4.65685425 4.65685425,6 3,6 Z M14,6 C12.3431458,6 11,4.65685425 11,3 C11,1.34314575 12.3431458,0 14,0 C15.6568542,0 17,1.34314575 17,3 C17,4.65685425 15.6568542,6 14,6 Z M25,6 C23.3431458,6 22,4.65685425 22,3 C22,1.34314575 23.3431458,0 25,0 C26.6568542,0 28,1.34314575 28,3 C28,4.65685425 26.6568542,6 25,6 Z" id="path-1"></path>
    </defs>
    <g id="Icons/Color/More" stroke="none" stroke-width="1" fill="none" fill-rule="evenodd">
        <g id="Colors/Clear">
            <mask id="mask-2" fill="white">
                <use xlink:href="#path-1"></use>
            </mask>
            <use id="Mask" fill="#BAB9C8" xlink:href="#path-1"></use>
            <g mask="url(#mask-2)" fill="#C2BFD4" id="Rectangle-2" opacity="0">
                <g transform="translate(-12.000000, -19.000000)">
                    <rect x="0" y="0" width="43" height="43"></rect>
                </g>
            </g>
        </g>
    </g>
</svg>