<?xml version="1.0" encoding="UTF-8"?>
<svg width="80px" height="80px" viewBox="0 0 80 80" version="1.1" xmlns="http://www.w3.org/2000/svg" xmlns:xlink="http://www.w3.org/1999/xlink">
    <!-- Generator: Sketch 50 (54983) - http://www.bohemiancoding.com/sketch -->
    <title>Icons/Color/Plus</title>
    <desc>Created with Sketch.</desc>
    <defs></defs>
    <g id="Icons/Color/Plus" stroke="none" stroke-width="1" fill="none" fill-rule="evenodd">
        <path d="M40,80 C17.90861,80 0,62.09139 0,40 C0,17.90861 17.90861,0 40,0 C62.09139,0 80,17.90861 80,40 C80,62.09139 62.09139,80 40,80 Z M36.86,36.86 L23.213,36.86 C21.4385091,36.86 20,38.2985091 20,40.073 C20,41.8474909 21.4385091,43.286 23.213,43.286 L36.86,43.286 L36.86,56.933 C36.86,58.7074909 38.2985091,60.146 40.073,60.146 C41.8474909,60.146 43.286,58.7074909 43.286,56.933 L43.286,43.286 L56.933,43.286 C58.7074909,43.286 60.146,41.8474909 60.146,40.073 C60.146,38.2985091 58.7074909,36.86 56.933,36.86 L43.286,36.86 L43.286,23.213 C43.286,21.4385091 41.8474909,20 40.073,20 C38.2985091,20 36.86,21.4385091 36.86,23.213 L36.86,36.86 Z" id="Combined-Shape" fill="#81B6FC"></path>
    </g>
</svg>