<?xml version="1.0" encoding="UTF-8"?>
<svg width="80px" height="80px" viewBox="0 0 80 80" version="1.1" xmlns="http://www.w3.org/2000/svg" xmlns:xlink="http://www.w3.org/1999/xlink">
    <!-- Generator: Sketch 50 (54983) - http://www.bohemiancoding.com/sketch -->
    <title>Icons/Color/Scale</title>
    <desc>Created with Sketch.</desc>
    <defs></defs>
    <g id="Icons/Color/Scale" stroke="none" stroke-width="1" fill="none" fill-rule="evenodd">
        <g id="Scale">
            <circle id="Oval-7" fill="#28D9B2" cx="40" cy="40" r="40"></circle>
            <path d="M23.3333333,17.3333333 L56.6666667,17.3333333 C59.9803752,17.3333333 62.6666667,20.0196248 62.6666667,23.3333333 L62.6666667,56.6666667 C62.6666667,59.9803752 59.9803752,62.6666667 56.6666667,62.6666667 L23.3333333,62.6666667 C20.0196248,62.6666667 17.3333333,59.9803752 17.3333333,56.6666667 L17.3333333,23.3333333 C17.3333333,20.0196248 20.0196248,17.3333333 23.3333333,17.3333333 Z M57.4322076,30.8446396 C55.6794987,28.7381702 53.5522057,26.9544099 51.1525787,25.5956088 L49.2572835,28.8708903 L48.1106364,28.1931966 L49.9696942,24.971253 C47.1572543,23.5916262 44.017093,22.7775227 40.6974606,22.6771927 L40.6974606,27.0067546 L39.3676088,27.0067546 L39.3676088,22.6753182 C36.128158,22.7640574 33.058452,23.5324702 30.2959653,24.843082 L32.287927,28.0445521 L31.1638311,28.756504 L29.0834569,25.4638082 C26.5343641,26.8672925 24.2843936,28.7470475 22.4534462,30.983172 L28.4672718,36.2710213 C31.521572,32.5380478 35.3658147,30.671561 40,30.671561 C40.784177,30.671561 41.5453072,30.7250059 42.2833905,30.8318957 L44.6908366,26.4422404 L44.4174911,31.449601 C45.7595695,32.0071229 48.1163814,33.614263 51.4879267,36.2710213 L57.4322076,30.8446396 Z" id="Combined-Shape" fill="#FFFFFF"></path>
        </g>
    </g>
</svg>