<?xml version="1.0" encoding="UTF-8"?>
<svg width="80px" height="80px" viewBox="0 0 80 80" version="1.1" xmlns="http://www.w3.org/2000/svg" xmlns:xlink="http://www.w3.org/1999/xlink">
    <!-- Generator: Sketch 50 (54983) - http://www.bohemiancoding.com/sketch -->
    <title>Icons/Color/Settings</title>
    <desc>Created with Sketch.</desc>
    <defs></defs>
    <g id="Icons/Color/Settings" stroke="none" stroke-width="1" fill="none" fill-rule="evenodd">
        <circle id="Oval-7" fill="#595575" cx="40" cy="40" r="40"></circle>
        <path d="M37.8841952,17.934234 C38.2943937,17.6447447 38.9148069,17.5 39.7454348,17.5 C41.1403888,17.5 41.9494649,17.6447447 42.1726632,17.934234 C42.5074606,18.368468 41.7840472,24.1539293 45.7018092,25.9545598 C49.6195711,27.7551902 53.4787963,22.6983522 54.2638339,22.8448857 C54.5923822,22.9062119 55.4626803,23.5501016 55.93754,24.0598064 C56.4123997,24.5695112 57.0023232,25.1942336 57.0023232,25.850807 C57.0023232,26.5073805 51.9893001,31.0558818 54.1127991,34.7050372 C56.2362982,38.3541926 61.462232,37.2894623 61.981116,37.8734961 C62.5,38.4575299 62.5,39.3867675 62.5,40.2747142 C62.5,41.1626608 62.3759254,41.2773185 61.981116,42.0313059 C61.5936262,42.7713146 55.4443299,41.773537 54.0009761,45.5297402 C53.9764796,45.5934901 53.9454245,45.6551429 53.9201615,45.7199167 C52.5575206,49.2137084 57.0023232,53.4256303 57.0023232,54.0976093 C57.0023232,54.7695883 56.8372796,55.0424654 56.0291759,55.8363646 C55.2210722,56.6302638 55.0150237,56.774964 54.0128655,57.0345196 C53.0107073,57.2940752 49.7506291,51.8629171 45.854635,53.8653732 C41.9586409,55.8678292 42.7559224,61.2457191 42.1726632,61.8660447 C41.589404,62.4863704 40.8515936,62.442085 39.8668022,62.4863704 C38.8820108,62.5306557 38.7955382,62.4863704 37.8841952,62.0588939 C36.9728523,61.6314175 38.5997106,55.5556892 34.0913344,53.8653732 C29.5829583,52.1750571 26.650311,57.2855816 25.7678556,57.0345196 C24.8854002,56.7834576 24.7130803,56.5590483 24.0048729,55.8363646 C23.2966655,55.1136808 23.283956,55.2350556 22.8897758,54.0976093 C22.4955956,52.960163 28.047351,49.7899465 25.897944,45.5691552 C23.748537,41.348364 18.1925276,42.914638 17.8770541,42.0313059 C17.5615807,41.1479738 17.5,41.1766972 17.5,40.0769569 C17.5,38.9772166 17.5,38.6638537 17.8770541,37.8734961 C18.2541082,37.0831384 24.9359964,38.1909545 26.1337346,33.7492411 C27.3314728,29.3075276 22.8897758,26.8339734 22.8897758,25.9545598 C22.8897758,25.368284 23.2614748,24.7366996 24.0048729,24.0598064 C24.7642213,23.3000841 25.3770342,22.897593 25.8433117,22.8523332 C25.8939885,22.8474141 25.945352,22.8448857 25.9974528,22.8448857 C26.7686235,22.8448857 30.723975,28.1186035 34.6061124,25.6876233 C38.4882498,23.2566431 37.2688975,18.368468 37.8841952,17.934234 Z M39.9909406,50.4365669 C45.7875956,50.4365669 50.4867129,45.7445931 50.4867129,39.9567502 C50.4867129,34.1689072 45.7875956,29.4769334 39.9909406,29.4769334 C34.1942856,29.4769334 29.4951683,34.1689072 29.4951683,39.9567502 C29.4951683,45.7445931 34.1942856,50.4365669 39.9909406,50.4365669 Z" id="Combined-Shape" fill="#FFFFFF"></path>
    </g>
</svg>