<?xml version="1.0" encoding="UTF-8"?>
<svg width="80px" height="80px" viewBox="0 0 80 80" version="1.1" xmlns="http://www.w3.org/2000/svg" xmlns:xlink="http://www.w3.org/1999/xlink">
    <!-- Generator: Sketch 50 (54983) - http://www.bohemiancoding.com/sketch -->
    <title>Icons/Color/Temperature</title>
    <desc>Created with Sketch.</desc>
    <defs></defs>
    <g id="Icons/Color/Temperature" stroke="none" stroke-width="1" fill="none" fill-rule="evenodd">
        <g id="Temperature">
            <circle id="Oval-7" fill="#FFCC57" cx="40" cy="40" r="40"></circle>
            <path d="M38.6666667,50.83469 C36.3663637,51.426747 34.6666667,53.5148808 34.6666667,56 C34.6666667,58.9455187 37.0544813,61.3333333 40,61.3333333 C42.9455187,61.3333333 45.3333333,58.9455187 45.3333333,56 C45.3333333,53.5148808 43.6336363,51.426747 41.3333333,50.83469 C41.3333333,33.0851566 41.3333333,24.14026 41.3333333,24 C41.3333333,23.2636203 40.7363797,22.6666667 40,22.6666667 C39.2636203,22.6666667 38.6666667,23.2636203 38.6666667,24 C38.6666667,24.1947022 38.6666667,33.1395988 38.6666667,50.83469 Z M34.6666667,46.7603549 C34.6666667,26.9649599 34.6666667,16.2670638 34.6666667,14.6666667 C34.6666667,11.721148 37.0544813,9.33333333 40,9.33333333 C42.9455187,9.33333333 45.3333333,11.721148 45.3333333,14.6666667 C45.3333333,16.2394433 45.3333333,26.9373394 45.3333333,46.7603549 C48.5216073,48.6046603 50.6666667,52.0518274 50.6666667,56 C50.6666667,61.8910373 45.8910373,66.6666667 40,66.6666667 C34.1089627,66.6666667 29.3333333,61.8910373 29.3333333,56 C29.3333333,52.0518274 31.4783927,48.6046603 34.6666667,46.7603434 Z" id="Combined-Shape" fill="#FFFFFF"></path>
        </g>
    </g>
</svg>