<?xml version="1.0" encoding="UTF-8"?>
<svg width="80px" height="80px" viewBox="0 0 80 80" version="1.1" xmlns="http://www.w3.org/2000/svg" xmlns:xlink="http://www.w3.org/1999/xlink">
    <!-- Generator: Sketch 50 (54983) - http://www.bohemiancoding.com/sketch -->
    <title>Icons/Color/Thumbs_Up</title>
    <desc>Created with Sketch.</desc>
    <defs></defs>
    <g id="Icons/Color/Thumbs_Up" stroke="none" stroke-width="1" fill="none" fill-rule="evenodd">
        <g id="Thumbs-Up">
            <circle id="Oval" fill="#28D9B2" cx="40" cy="40" r="40"></circle>
            <path d="M22,35 L28,35 C29.6568542,35 31,36.3431458 31,38 L31,53 C31,54.6568542 29.6568542,56 28,56 L22,56 C20.3431458,56 19,54.6568542 19,53 L19,38 C19,36.3431458 20.3431458,35 22,35 Z M34,37.9596945 C34,37.0643203 34.6163495,35.6300069 35.4220419,34.6960475 C36.2277344,33.7620882 39.6945146,30.3472928 41.5083277,26.4273801 C43.3221408,22.5074673 43.0242725,17.8670629 45.1386893,17.2291837 C46.0706652,16.9480243 47.667714,16.7864016 48.6971988,17.5976907 C50.0033537,18.6270108 50.599765,20.990284 50.0035399,24.1135487 C48.9373824,29.6985071 46.2520649,31.9517831 47.2531061,32.9248223 C47.920467,33.5735152 51.8510928,33.8539568 59.0449836,33.7661473 C61.1361555,34.1306489 62.1174351,35.2966571 61.9888224,37.2641718 C61.8602097,39.2316865 60.87893,40.2154439 59.0449836,40.2154439 C59.9974306,40.9261368 60.4736541,41.9784901 60.4736541,43.3725036 C60.4736541,44.7665171 59.6412348,45.8302481 57.9763963,46.5636964 C58.6887878,46.973293 59.0449836,47.8919173 59.0449836,49.3195692 C59.0449836,50.7472211 58.1168336,51.7583508 56.2605338,52.3529584 C56.2605338,53.0052789 56.2605338,53.7390571 56.2605338,54.5542928 C56.2605338,55.7771464 54.7827831,57 54.1787567,57 C53.5747304,57 40.812426,57 39.8322803,57 C38.8521345,57 34,55.6787047 34,54.5542928 C34,53.4298809 34,38.8550687 34,37.9596945 Z" id="Combined-Shape" fill="#FFFFFF"></path>
        </g>
    </g>
</svg>