<?xml version="1.0" encoding="UTF-8"?>
<svg width="80px" height="80px" viewBox="0 0 80 80" version="1.1" xmlns="http://www.w3.org/2000/svg" xmlns:xlink="http://www.w3.org/1999/xlink">
    <!-- Generator: Sketch 50 (54983) - http://www.bohemiancoding.com/sketch -->
    <title>Icons/Color/Warning</title>
    <desc>Created with Sketch.</desc>
    <defs></defs>
    <g id="Icons/Color/Warning" stroke="none" stroke-width="1" fill="none" fill-rule="evenodd">
        <circle id="Oval" fill="#FFCC57" cx="40" cy="40" r="40"></circle>
        <path d="M41.7888544,17.5777088 L61.5527864,57.1055728 C62.0467649,58.0935298 61.6463162,59.2948759 60.6583592,59.7888544 C60.3806483,59.9277098 60.0744222,60 59.763932,60 L20.236068,60 C19.1314985,60 18.236068,59.1045695 18.236068,58 C18.236068,57.6895098 18.3083582,57.3832837 18.4472136,57.1055728 L38.2111456,17.5777088 C38.7051241,16.5897518 39.9064702,16.1893031 40.8944272,16.6832816 C41.281482,16.876809 41.595327,17.190654 41.7888544,17.5777088 Z M41.9,48.01 L41.9,31 L37.7,31 L37.7,48.01 L41.9,48.01 Z M37,53.33 C37,53.7033352 37.0758326,54.0533317 37.2275,54.38 C37.3791674,54.7066683 37.5833321,54.9866655 37.84,55.22 C38.0966679,55.4533345 38.394165,55.6399993 38.7325,55.78 C39.070835,55.9200007 39.4266648,55.99 39.8,55.99 C40.5700038,55.99 41.2291639,55.7216693 41.7775,55.185 C42.3258361,54.6483306 42.6,54.0066704 42.6,53.26 C42.6,52.5133296 42.3200028,51.8833359 41.76,51.37 C41.1999972,50.8566641 40.5466704,50.6 39.8,50.6 C39.0299961,50.6 38.3708361,50.8683306 37.8225,51.405 C37.2741639,51.9416693 37,52.5833296 37,53.33 Z" id="Combined-Shape" fill="#FFFFFF"></path>
    </g>
</svg>