<?xml version="1.0" encoding="UTF-8"?>
<svg width="80px" height="80px" viewBox="0 0 80 80" version="1.1" xmlns="http://www.w3.org/2000/svg" xmlns:xlink="http://www.w3.org/1999/xlink">
    <!-- Generator: Sketch 50 (54983) - http://www.bohemiancoding.com/sketch -->
    <title>Icons/White/Alert</title>
    <desc>Created with Sketch.</desc>
    <defs></defs>
    <g id="Icons/White/Alert" stroke="none" stroke-width="1" fill="none" fill-rule="evenodd">
        <circle id="Oval-2" fill="#FFFFFF" cx="40" cy="40" r="40"></circle>
        <path d="M44.1500003,49.2350012 L35.45,49.2350012 L35.45,14 L44.1500003,14 L44.1500003,49.2350012 Z M34,60.2550015 C34,58.7083271 34.567911,57.3791737 35.7037501,56.2675014 C36.8395891,55.1558291 38.2049922,54.6000013 39.8000002,54.6000013 C41.3466746,54.6000013 42.6999945,55.1316627 43.8600003,56.1950014 C45.0200062,57.2583401 45.6000004,58.5633271 45.6000004,60.1100015 C45.6000004,61.656676 45.0320894,62.9858294 43.8962503,64.0975016 C42.7604113,65.2091739 41.3950082,65.7650017 39.8000002,65.7650017 C39.026663,65.7650017 38.289587,65.6200031 37.5887501,65.3300017 C36.8879133,65.0400002 36.2716694,64.6533374 35.7400001,64.1700016 C35.2083307,63.6866659 34.7854183,63.1066717 34.47125,62.4300016 C34.1570818,61.7533315 34,61.0283387 34,60.2550015 Z" id="!" fill="#FF7979"></path>
    </g>
</svg>