<?xml version="1.0" encoding="UTF-8"?>
<svg width="80px" height="80px" viewBox="0 0 80 80" version="1.1" xmlns="http://www.w3.org/2000/svg" xmlns:xlink="http://www.w3.org/1999/xlink">
    <!-- Generator: Sketch 50 (54983) - http://www.bohemiancoding.com/sketch -->
    <title>Icons/White/BackColor</title>
    <desc>Created with Sketch.</desc>
    <defs></defs>
    <g id="Icons/White/BackColor" stroke="none" stroke-width="1" fill="none" fill-rule="evenodd">
        <circle id="Mask" fill="#FFFFFF" cx="40" cy="40" r="40"></circle>
        <path d="M45.4191991,57.5867794 L26.5012265,43.1278157 C24.746034,41.786326 24.4106616,39.2759692 25.7521513,37.5207767 C25.9675286,37.238979 26.2194289,36.9870787 26.5012265,36.7717014 L45.324419,22.385178 C46.6804468,21.348769 48.6199001,21.6078712 49.6563091,22.963899 C49.661183,22.970276 49.6660321,22.976672 49.6708562,22.9830868 L49.6708562,22.9830868 C50.6851579,24.3318431 50.4140288,26.2474802 49.0652724,27.2617818 C49.0497447,27.2734591 49.0341059,27.2849881 49.0183582,27.2963671 L32.6172356,39.1475545 C32.1695866,39.4710184 32.0689148,40.0961288 32.3923787,40.5437777 C32.4529265,40.6275712 32.5261015,40.7014691 32.6092957,40.7628378 L49.1324127,52.9512009 C50.4119936,53.8950903 50.6841252,55.6975692 49.7402358,56.97715 C49.7177064,57.0076919 49.6945754,57.0377852 49.6708562,57.0674124 L49.6708562,57.0674124 C48.6302738,58.367186 46.7420649,58.5978427 45.4191991,57.5867794 Z" id="Mask" fill="#595575"></path>
    </g>
</svg>