<?xml version="1.0" encoding="UTF-8"?>
<svg width="80px" height="80px" viewBox="0 0 80 80" version="1.1" xmlns="http://www.w3.org/2000/svg" xmlns:xlink="http://www.w3.org/1999/xlink">
    <!-- Generator: Sketch 50 (54983) - http://www.bohemiancoding.com/sketch -->
    <title>Icons/White/Back</title>
    <desc>Created with Sketch.</desc>
    <defs>
        <path d="M40,80 C17.90861,80 0,62.09139 0,40 C0,17.90861 17.90861,0 40,0 C62.09139,0 80,17.90861 80,40 C80,62.09139 62.09139,80 40,80 Z M45.0761732,58.092865 C46.399039,59.1039283 48.2872479,58.8732715 49.3278303,57.573498 C49.3515494,57.5438708 49.3746805,57.5137774 49.3972098,57.4832356 C50.3410993,56.2036547 50.0689677,54.4011759 48.7893868,53.4572864 L33.3685181,42.0820025 C33.2021297,41.9592653 33.0557797,41.8114694 32.9346841,41.6438824 C32.2877563,40.7485846 32.4890999,39.4983637 33.3843978,38.8514359 L48.6753323,27.8024527 C48.6910799,27.7910736 48.7067187,27.7795447 48.7222465,27.7678674 C50.0710028,26.7535657 50.3421319,24.8379287 49.3278303,23.4891724 C49.3230062,23.4827576 49.3181571,23.4763616 49.3132832,23.4699846 C48.2768742,22.1139568 46.3374209,21.8548545 44.9813931,22.8912635 L26.1582006,37.277787 C25.8764029,37.4931643 25.6245026,37.7450646 25.4091253,38.0268622 C24.0676357,39.7820547 24.4030081,42.2924116 26.1582006,43.6339012 L45.0761732,58.092865 Z" id="path-1"></path>
    </defs>
    <g id="Icons/White/Back" stroke="none" stroke-width="1" fill="none" fill-rule="evenodd">
        <g id="White">
            <mask id="mask-2" fill="white">
                <use xlink:href="#path-1"></use>
            </mask>
            <use id="Mask" fill="#FFFFFF" xlink:href="#path-1"></use>
            <g id="Colors/white" mask="url(#mask-2)" fill="#FFFFFF">
                <rect id="hr" x="0" y="0" width="80" height="80"></rect>
            </g>
        </g>
    </g>
</svg>