<?xml version="1.0" encoding="UTF-8"?>
<svg width="80px" height="80px" viewBox="0 0 80 80" version="1.1" xmlns="http://www.w3.org/2000/svg" xmlns:xlink="http://www.w3.org/1999/xlink">
    <!-- Generator: Sketch 50 (54983) - http://www.bohemiancoding.com/sketch -->
    <title>Icons/White/Blood_Pressure</title>
    <desc>Created with Sketch.</desc>
    <defs></defs>
    <g id="Icons/White/Blood_Pressure" stroke="none" stroke-width="1" fill="none" fill-rule="evenodd">
        <g id="Blood-Pressure">
            <circle id="Path" fill="#FFFFFF" cx="40" cy="40" r="40"></circle>
            <path d="M27.5860834,47.3533259 C28.7138136,48.1363998 29.3333333,49.4641138 29.3333333,50.6666667 L30.6666667,50.6666667 C30.6666667,48.7357507 29.6405333,47.0445011 28.1038301,46.1084811 L28.4128253,45.3655484 L27.9248117,46.0041549 C27.1575746,45.5768024 26.2738866,45.3333333 25.3333333,45.3333333 C22.3878147,45.3333333 20,47.721148 20,50.6666667 L21.3333333,50.6666667 C21.3333333,48.7468579 22.8021111,46.6666667 25.3333333,46.6666667 C26.0019538,46.6666667 26.5964424,46.8165687 27.1093099,47.071307 L25.3800884,49.3341378 C25.3645693,49.3336029 25.3489828,49.3333333 25.3333333,49.3333333 C24.5969537,49.3333333 24,49.930287 24,50.6666667 C24,51.4030463 24.5969537,52 25.3333333,52 C26.069713,52 26.6666667,51.4030463 26.6666667,50.6666667 C26.6666667,50.4225675 26.6010719,50.1937889 26.4865474,49.996996 L27.5860834,47.3533259 Z M20.9905547,43.1649175 C19.1684993,40.7354563 17.9481551,38.5583168 17.5633607,36.578721 C16.3207674,30.1861328 20.2367258,24.0469275 26.3098986,22.8664223 C32.3825558,21.6860174 38.3126646,25.9104279 39.5559483,30.9691117 C40.7992723,25.9104613 46.7291789,21.6860648 52.801592,22.8664223 C58.8745509,24.046886 62.7903358,30.1860575 61.5477425,36.5786457 C61.1546729,38.6008136 59.8897576,40.8291187 58.0022394,43.3219478 C58.5438021,43.3219478 59.2112127,43.3219478 60.0044714,43.3219478 C63.0521675,43.3219478 66.0988379,45.8164277 66.0988379,49.382687 C66.0988379,52.9489462 63.0247425,55.2761331 59.5971007,55.2761331 L57.7478771,55.2761331 C53.633531,55.2761331 52.7206815,58.2491213 52.7206815,60.0196005 C52.7206815,60.2915572 52.7206815,60.5471272 52.7206815,60.7863105 C54.2346445,61.8509295 56.037415,65.9051264 56.037415,67.8146388 C56.037415,70.0237778 54.246554,71.8146388 52.037415,71.8146388 C49.828276,71.8146388 48.037415,70.0237778 48.037415,67.8146388 C48.037415,65.9090776 49.8327327,61.8676981 51.3447468,60.7929576 C51.3447468,60.553822 51.3447468,60.2960364 51.3447468,60.0196005 C51.3447468,55.7601102 54.5952504,53.9623521 57.7478771,53.9623521 L59.5971007,53.9623521 C62.5559688,53.9623521 64.7293987,51.8784604 64.7293987,49.382687 C64.7293987,46.8869135 62.7441821,44.6860895 60.0044714,44.6860895 C58.6269808,44.6860895 57.602305,44.6860895 56.930444,44.6860895 C52.7629586,49.8189309 46.3243035,56.0322463 39.5558504,63.7808146 C37.0614791,60.9253292 34.6118962,58.2783412 32.3042655,55.8170892 C33.3698827,54.3771985 34,52.5955185 34,50.6666667 C34,45.8801988 30.1198012,42 25.3333333,42 C23.7508553,42 22.2674382,42.4241301 20.9905547,43.1649175 Z M25.3333333,58 C21.2832452,58 18,54.7167548 18,50.6666667 C18,46.6165785 21.2832452,43.3333333 25.3333333,43.3333333 C29.3834215,43.3333333 32.6666667,46.6165785 32.6666667,50.6666667 C32.6666667,54.7167548 29.3834215,58 25.3333333,58 Z" id="Combined-Shape" fill="#BD79FF"></path>
        </g>
    </g>
</svg>