<?xml version="1.0" encoding="UTF-8"?>
<svg width="80px" height="80px" viewBox="0 0 80 80" version="1.1" xmlns="http://www.w3.org/2000/svg" xmlns:xlink="http://www.w3.org/1999/xlink">
    <!-- Generator: Sketch 50 (54983) - http://www.bohemiancoding.com/sketch -->
    <title>Icons/White/Help</title>
    <desc>Created with Sketch.</desc>
    <defs></defs>
    <g id="Icons/White/Help" stroke="none" stroke-width="1" fill="none" fill-rule="evenodd">
        <g id="Help">
            <circle id="Oval-7" fill="#FFFFFF" cx="40" cy="40" r="40"></circle>
            <path d="M35.8145944,50.5132425 L35.8145944,46.841621 C35.8145944,45.862517 35.8702244,45.0280659 35.9814863,44.3382427 C36.0927481,43.6484194 36.2930163,43.0253626 36.5822971,42.4690535 C36.8715778,41.9127444 37.2498623,41.3786957 37.7171619,40.8668914 C38.1844615,40.355087 38.7518883,39.7431562 39.4194592,39.0310806 L44.5597293,33.8240537 C45.6723475,32.7114355 46.2286482,31.2650536 46.2286482,29.4848646 C46.2286482,27.7491803 45.6612215,26.3361764 44.5263509,25.2458106 C43.3914804,24.1554448 41.9562245,23.6102701 40.2205402,23.6102701 C38.3513417,23.6102701 36.8159517,24.2444529 35.6143241,25.5128376 C34.4126965,26.7812223 33.7228836,28.3277384 33.5448647,30.1524321 L25,29.4848646 C25.2670284,27.3486377 25.8233291,25.4460892 26.6689189,23.777162 C27.5145087,22.1082348 28.6159841,20.6952309 29.9733783,19.538108 C31.3307724,18.3809852 32.8995405,17.50203 34.6797295,16.9012162 C36.4599186,16.3004024 38.4180972,16 40.554324,16 C42.5570367,16 44.4150811,16.2892764 46.1285131,16.8678378 C47.841945,17.4463993 49.332831,18.2808504 50.6012157,19.3712161 C51.8696004,20.4615819 52.8598157,21.8189557 53.5718913,23.4433782 C54.2839669,25.0678007 54.6399994,26.9258452 54.6399994,29.0175673 C54.6399994,30.4862233 54.4397311,31.776841 54.0391886,32.8894591 C53.6386461,34.0020773 53.1045974,35.0256706 52.4370265,35.9602699 C51.7694556,36.8948691 51.0017606,37.7849503 50.1339184,38.6305401 C49.2660762,39.4761299 48.342617,40.366211 47.3635131,41.3008103 C46.7404469,41.8793717 46.2063982,42.3911684 45.7613509,42.8362157 C45.3163037,43.2812629 44.9491452,43.7374295 44.6598645,44.2047291 C44.3705837,44.6720288 44.1591895,45.2060775 44.0256753,45.8068913 C43.8921611,46.4077051 43.825405,47.130896 43.825405,47.9764858 L43.825405,50.5132425 L35.8145944,50.5132425 Z M34.4794593,59.7924315 C34.4794593,58.3682803 35.002382,57.1444187 36.048243,56.12081 C37.0941041,55.0972013 38.3513437,54.5854046 39.8199997,54.5854046 C41.2441509,54.5854046 42.4902646,55.0749493 43.558378,56.0540532 C44.6264914,57.0331572 45.1605401,58.2347668 45.1605401,59.658918 C45.1605401,61.0830693 44.6376174,62.3069309 43.5917564,63.3305396 C42.5458953,64.3541483 41.2886557,64.8659449 39.8199997,64.8659449 C39.1079241,64.8659449 38.4292372,64.7324328 37.7839187,64.4654044 C37.1386001,64.1983761 36.5711734,63.8423436 36.0816214,63.3972963 C35.5920694,62.9522491 35.2026589,62.4182004 34.9133782,61.7951342 C34.6240975,61.172068 34.4794593,60.5045071 34.4794593,59.7924315 Z" id="?" fill="#9386F4"></path>
        </g>
    </g>
</svg>