<?xml version="1.0" encoding="UTF-8"?>
<svg width="80px" height="80px" viewBox="0 0 80 80" version="1.1" xmlns="http://www.w3.org/2000/svg" xmlns:xlink="http://www.w3.org/1999/xlink">
    <!-- Generator: Sketch 50 (54983) - http://www.bohemiancoding.com/sketch -->
    <title>Icons/White/Home</title>
    <desc>Created with Sketch.</desc>
    <defs>
        <circle id="path-1" cx="40" cy="40" r="40"></circle>
    </defs>
    <g id="Icons/White/Home" stroke="none" stroke-width="1" fill="none" fill-rule="evenodd">
        <g id="Home">
            <mask id="mask-2" fill="white">
                <use xlink:href="#path-1"></use>
            </mask>
            <use id="Mask" fill="#FFFFFF" xlink:href="#path-1"></use>
            <path d="M24.2341242,60.2271256 L33.8304289,60.2271256 C34.9349984,60.2271256 35.8304289,59.3316951 35.8304289,58.2271256 L35.8304289,48.3578419 C35.8304289,47.2532724 36.7258594,46.3578419 37.8304289,46.3578419 L42.0843785,46.3578419 C43.188948,46.3578419 44.0843785,47.2532724 44.0843785,48.3578419 L44.0843785,58.2271256 C44.0843785,59.3316951 44.979809,60.2271256 46.0843785,60.2271256 L55.7175869,60.2271256 C56.8221564,60.2271256 57.7175869,59.3316951 57.7175869,58.2271256 L57.7175869,41.8642722 L62.4402407,41.8642722 C63.5448102,41.8642722 64.4402407,40.9688416 64.4402407,39.8642722 C64.4402407,39.2892986 64.1927841,38.7421375 63.7610243,38.3624297 L41.0710995,18.4079525 C40.3093573,17.7380442 39.1667296,17.7445108 38.4126185,18.4229978 L16.2340172,38.3774751 C15.4128818,39.116265 15.3461276,40.3808342 16.0849175,41.2019696 C16.4642095,41.6235373 17.0046329,41.8642722 17.5717146,41.8642722 L22.2341242,41.8642722 L22.2341242,58.2271256 C22.2341242,59.3316951 23.1295547,60.2271256 24.2341242,60.2271256 Z" id="Path-7" fill="#81B6FC" mask="url(#mask-2)"></path>
        </g>
    </g>
</svg>