<?xml version="1.0" encoding="UTF-8"?>
<svg width="80px" height="80px" viewBox="0 0 80 80" version="1.1" xmlns="http://www.w3.org/2000/svg" xmlns:xlink="http://www.w3.org/1999/xlink">
    <!-- Generator: Sketch 50 (54983) - http://www.bohemiancoding.com/sketch -->
    <title>Icons/White/Oxygen</title>
    <desc>Created with Sketch.</desc>
    <defs></defs>
    <g id="Icons/White/Oxygen" stroke="none" stroke-width="1" fill="none" fill-rule="evenodd">
        <g id="Oxygen">
            <circle id="Oval-7" fill="#FFFFFF" cx="40" cy="40" r="40"></circle>
            <path d="M21.3333333,38.1944075 C21.3333333,36.9019021 21.3996147,35.5597051 21.5321793,34.1677763 C21.664744,32.7758475 21.9050138,31.408795 22.252996,30.0665779 C22.6009782,28.7243608 23.0649475,27.44016 23.6449179,26.213937 C24.2248882,24.9877139 24.9705532,23.9189275 25.8819352,23.0075455 C26.7933172,22.0961635 27.8703888,21.3670689 29.1131824,20.8202397 C30.355976,20.2734105 31.8058802,20 33.4629383,20 C35.1199964,20 36.5699006,20.2734105 37.8126942,20.8202397 C39.0554878,21.3670689 40.1325594,22.0961635 41.0439414,23.0075455 C41.9553234,23.9189275 42.7009884,24.9877139 43.2809587,26.213937 C43.8609291,27.44016 44.3248984,28.7243608 44.6728806,30.0665779 C45.0208628,31.408795 45.2611326,32.7758475 45.3936973,34.1677763 C45.5262619,35.5597051 45.5925433,36.9019021 45.5925433,38.1944075 C45.5925433,40.0503126 45.4268399,42.0387525 45.0954283,44.159787 C44.7640167,46.2808214 44.1509144,48.252691 43.256103,50.0754549 C42.3612916,51.8982189 41.1268018,53.4061192 39.5525965,54.5992011 C37.9783913,55.7922829 35.9485255,56.3888149 33.4629383,56.3888149 C30.9773511,56.3888149 28.9474853,55.7922829 27.3732801,54.5992011 C25.7990748,53.4061192 24.564585,51.8982189 23.6697736,50.0754549 C22.7749622,48.252691 22.1618599,46.2808214 21.8304483,44.159787 C21.4990367,42.0387525 21.3333333,40.0503126 21.3333333,38.1944075 Z M26.1056369,38.1944075 C26.1056369,37.3990195 26.1304924,36.4959364 26.1802042,35.4851309 C26.2299159,34.4743255 26.3459082,33.4469648 26.5281846,32.4030182 C26.710461,31.3590716 26.9673012,30.3482813 27.2987128,29.370617 C27.6301245,28.3929526 28.0692383,27.514725 28.6160675,26.7359077 C29.1628967,25.9570904 29.8339951,25.3357029 30.629383,24.8717266 C31.424771,24.4077503 32.3692799,24.1757656 33.4629383,24.1757656 C34.5565967,24.1757656 35.5011057,24.4077503 36.2964936,24.8717266 C37.0918815,25.3357029 37.76298,25.9570904 38.3098091,26.7359077 C38.8566383,27.514725 39.2957522,28.3929526 39.6271638,29.370617 C39.9585754,30.3482813 40.2154156,31.3590716 40.397692,32.4030182 C40.5799684,33.4469648 40.6959607,34.4743255 40.7456724,35.4851309 C40.7953842,36.4959364 40.8202397,37.3990195 40.8202397,38.1944075 C40.8202397,39.3543482 40.7456732,40.7296858 40.5965379,42.3204616 C40.4474027,43.9112374 40.1242812,45.4439932 39.6271638,46.918775 C39.1300463,48.3935567 38.3926665,49.6446168 37.4150022,50.6719929 C36.4373379,51.6993689 35.1199964,52.2130493 33.4629383,52.2130493 C31.8058802,52.2130493 30.4885387,51.6993689 29.5108744,50.6719929 C28.5332101,49.6446168 27.7958303,48.3935567 27.2987128,46.918775 C26.8015954,45.4439932 26.4784739,43.9112374 26.3293387,42.3204616 C26.1802034,40.7296858 26.1056369,39.3543482 26.1056369,38.1944075 Z M45.5759728,57.8083543 L53.1707846,50.4620999 C53.3917257,50.2411588 53.6218692,50.0064124 53.8612221,49.7578537 C54.1005749,49.509295 54.3169098,49.2469314 54.5102333,48.970755 C54.7035567,48.6945787 54.8646572,48.4045979 54.9935395,48.1008039 C55.1224218,47.7970099 55.186862,47.4794118 55.186862,47.1480002 C55.186862,46.7429415 55.1086132,46.3839177 54.9521132,46.0709178 C54.7956133,45.7579179 54.5884841,45.4909514 54.3307195,45.2700104 C54.0729549,45.0490693 53.7737684,44.8787631 53.4331509,44.7590866 C53.0925334,44.6394102 52.7289066,44.5795729 52.3422597,44.5795729 C51.5137306,44.5795729 50.8325058,44.8189222 50.2985649,45.2976279 C49.7646239,45.7763335 49.442423,46.4207354 49.3319525,47.2308527 L45.8521478,46.9546777 C45.9257948,46.0525016 46.1421297,45.2562051 46.5011589,44.5657642 C46.8601882,43.8753233 47.3250781,43.2999645 47.8958426,42.8396706 C48.4666071,42.3793766 49.1294204,42.0295585 49.8843024,41.7902057 C50.6391845,41.5508528 51.4584954,41.4311782 52.3422597,41.4311782 C53.226024,41.4311782 54.0499378,41.5462499 54.8140257,41.7763969 C55.5781137,42.0065439 56.2455299,42.3471563 56.8162943,42.7982443 C57.3870588,43.2493324 57.8381401,43.8246911 58.1695517,44.5243379 C58.5009633,45.2239847 58.6666667,46.0432956 58.6666667,46.9822952 C58.6666667,48.2158829 58.3858916,49.279146 57.824333,50.1721162 C57.2627744,51.0650864 56.5401238,51.9166174 55.6563594,52.7267347 L49.6081274,58.3330867 L58.6666667,58.3330867 L58.6666667,61.3157765 L45.5759728,61.3157765 L45.5759728,57.8083543 Z" id="Combined-Shape" fill="#78A0E8"></path>
        </g>
    </g>
</svg>