<?xml version="1.0" encoding="UTF-8"?>
<svg width="80px" height="80px" viewBox="0 0 80 80" version="1.1" xmlns="http://www.w3.org/2000/svg" xmlns:xlink="http://www.w3.org/1999/xlink">
    <!-- Generator: Sketch 50 (54983) - http://www.bohemiancoding.com/sketch -->
    <title>Icons/White/Settings</title>
    <desc>Created with Sketch.</desc>
    <defs></defs>
    <g id="Icons/White/Settings" stroke="none" stroke-width="1" fill="none" fill-rule="evenodd">
        <circle id="Oval-7" fill="#FFFFFF" cx="40" cy="40" r="40"></circle>
        <path d="M37.6961237,15.9728326 C38.1427842,15.6576109 38.8183453,15.5 39.7228068,15.5 C41.2417567,15.5 42.1227507,15.6576109 42.3657888,15.9728326 C42.730346,16.4456652 41.9426292,22.7453897 46.2086367,24.7060762 C50.4746441,26.6667627 54.6769115,21.1604279 55.5317303,21.3199867 C55.8894829,21.3867641 56.8371407,22.0878884 57.3542102,22.6429003 C57.8712797,23.1979122 58.5136408,23.8781655 58.5136408,24.593101 C58.5136408,25.3080365 53.0550156,30.260849 55.3672702,34.2343738 C57.6795247,38.2078986 63.3699859,37.0485256 63.934993,37.6844735 C64.5,38.3204214 64.5,39.3322579 64.5,40.2991332 C64.5,41.2660085 64.3648966,41.390858 63.934993,42.2118664 C63.5130597,43.0176536 56.8171593,41.9311847 55.2455073,46.0212727 C55.2188334,46.0906892 55.1850177,46.1578223 55.1575092,46.2283538 C53.6737446,50.0327047 58.5136408,54.6190196 58.5136408,55.3507301 C58.5136408,56.0824406 58.3339267,56.3795734 57.4539915,57.2440414 C56.5740564,58.1085094 56.3496925,58.2660719 55.2584536,58.5486991 C54.1672146,58.8313263 50.6173517,52.9173987 46.375047,55.0978508 C42.1327423,57.2783029 43.0008932,63.1342274 42.3657888,63.8096931 C41.7306844,64.4851588 40.9272908,64.436937 39.8549624,64.4851588 C38.782634,64.5333807 38.6884749,64.4851588 37.6961237,64.0196845 C36.7037725,63.5542102 38.4752404,56.9384171 33.5661197,55.0978508 C28.656999,53.2572844 25.463672,58.8220777 24.5027761,58.5486991 C23.5418803,58.2753205 23.354243,58.0309638 22.5830838,57.2440414 C21.8119246,56.4571191 21.7980854,56.5892827 21.368867,55.3507301 C20.9396485,54.1121774 26.9848934,50.6601639 24.6444279,46.0641913 C22.3039625,41.4682186 16.2540856,43.1737169 15.91057,42.2118664 C15.5670545,41.2500159 15.5,41.2812925 15.5,40.0837975 C15.5,38.8863025 15.5,38.5450852 15.91057,37.6844735 C16.3211401,36.8238618 23.5969739,38.0301505 24.9011777,33.1936181 C26.2053815,28.3570857 21.368867,25.6636599 21.368867,24.7060762 C21.368867,24.0676871 21.7736059,23.3799618 22.5830838,22.6429003 C23.4099298,21.8156471 24.077215,21.3773791 24.5849394,21.3280961 C24.6401208,21.3227398 24.69605,21.3199867 24.7527819,21.3199867 C25.5925012,21.3199867 29.8994394,27.0624793 34.1266557,24.415412 C38.353872,21.7683447 37.0261328,16.4456652 37.6961237,15.9728326 Z M39.9901353,51.3642617 C46.3020485,51.3642617 51.4188651,46.2552236 51.4188651,39.9529057 C51.4188651,33.6505878 46.3020485,28.5415497 39.9901353,28.5415497 C33.6782221,28.5415497 28.5614055,33.6505878 28.5614055,39.9529057 C28.5614055,46.2552236 33.6782221,51.3642617 39.9901353,51.3642617 Z" id="Combined-Shape" fill="#595575"></path>
    </g>
</svg>