<?xml version="1.0" encoding="UTF-8"?>
<svg width="80px" height="80px" viewBox="0 0 80 80" version="1.1" xmlns="http://www.w3.org/2000/svg" xmlns:xlink="http://www.w3.org/1999/xlink">
    <!-- Generator: Sketch 50 (54983) - http://www.bohemiancoding.com/sketch -->
    <title>Icons/White/Thumbs_Up</title>
    <desc>Created with Sketch.</desc>
    <defs></defs>
    <g id="Icons/White/Thumbs_Up" stroke="none" stroke-width="1" fill="none" fill-rule="evenodd">
        <g id="Thumbs-Up">
            <circle id="Oval" fill="#FFFFFF" cx="40" cy="40" r="40"></circle>
            <path d="M20,34.6744186 L27.1162791,34.6744186 C28.7731333,34.6744186 30.1162791,36.0175644 30.1162791,37.6744186 L30.1162791,54.627907 C30.1162791,56.2847612 28.7731333,57.627907 27.1162791,57.627907 L20,57.627907 C18.3431458,57.627907 17,56.2847612 17,54.627907 L17,37.6744186 C17,36.0175644 18.3431458,34.6744186 20,34.6744186 Z M33.3953488,37.9094335 C33.3953488,36.9307687 34.0690332,35.3630308 34.9496737,34.3421915 C35.8303143,33.3213522 39.6195857,29.5889015 41.6021256,25.3043457 C43.5846655,21.0197899 43.2590886,15.9477199 45.5701953,15.2505031 C46.5888666,14.9431894 48.3344781,14.766532 49.4597289,15.6532899 C50.8873867,16.7783607 51.539278,19.3614732 50.8875901,22.7752742 C49.7222551,28.8797636 46.7871407,31.3426466 47.881302,32.4062012 C48.610743,33.1152375 52.9070084,33.4217668 60.7700983,33.325789 C63.0557979,33.7241976 64.1283593,34.9986717 63.9877826,37.149211 C63.8472059,39.2997504 62.7746445,40.37502 60.7700983,40.37502 C61.8111451,41.151824 62.3316684,42.3020706 62.3316684,43.8257598 C62.3316684,45.349449 61.4218148,46.5121316 59.6021076,47.3138077 C60.3807681,47.7615063 60.7700983,48.765584 60.7700983,50.3260407 C60.7700983,51.8864974 59.7556089,52.9916858 57.72663,53.6416057 C57.72663,54.3546072 57.72663,55.1566438 57.72663,56.0477154 C57.72663,57.3843228 56.1114141,58.7209302 55.4511992,58.7209302 C54.7909843,58.7209302 40.8414889,58.7209302 39.7701668,58.7209302 C38.6988447,58.7209302 33.3953488,57.2767237 33.3953488,56.0477154 C33.3953488,54.818707 33.3953488,38.8880983 33.3953488,37.9094335 Z" id="Combined-Shape" fill="#28D9B2"></path>
        </g>
    </g>
</svg>