<?xml version="1.0" encoding="UTF-8"?>
<svg width="80px" height="80px" viewBox="0 0 80 80" version="1.1" xmlns="http://www.w3.org/2000/svg" xmlns:xlink="http://www.w3.org/1999/xlink">
    <!-- Generator: Sketch 50 (54983) - http://www.bohemiancoding.com/sketch -->
    <title>Icons/White/Warning</title>
    <desc>Created with Sketch.</desc>
    <defs></defs>
    <g id="Icons/White/Warning" stroke="none" stroke-width="1" fill="none" fill-rule="evenodd">
        <circle id="Oval" fill="#FFFFFF" cx="40" cy="40" r="40"></circle>
        <path d="M41.7888544,15.5777088 L63.5527864,59.1055728 C64.0467649,60.0935298 63.6463162,61.2948759 62.6583592,61.7888544 C62.3806483,61.9277098 62.0744222,62 61.763932,62 L18.236068,62 C17.1314985,62 16.236068,61.1045695 16.236068,60 C16.236068,59.6895098 16.3083582,59.3832837 16.4472136,59.1055728 L38.2111456,15.5777088 C38.7051241,14.5897518 39.9064702,14.1893031 40.8944272,14.6832816 C41.281482,14.876809 41.595327,15.190654 41.7888544,15.5777088 Z M42.0652174,48.9673913 L42.0652174,30.4782609 L37.5,30.4782609 L37.5,48.9673913 L42.0652174,48.9673913 Z M36.7391304,54.75 C36.7391304,55.1557991 36.8215571,55.5362301 36.986413,55.8913043 C37.1512689,56.2463786 37.373187,56.5507234 37.6521739,56.8043478 C37.9311608,57.0579723 38.2545271,57.2608688 38.6222826,57.4130435 C38.9900381,57.5652182 39.3768096,57.6413043 39.7826087,57.6413043 C40.6195694,57.6413043 41.3360477,57.3496406 41.9320652,56.7663043 C42.5280827,56.1829681 42.826087,55.4855113 42.826087,54.673913 C42.826087,53.8623148 42.5217422,53.177539 41.9130435,52.6195652 C41.3043448,52.0615914 40.594207,51.7826087 39.7826087,51.7826087 C38.945648,51.7826087 38.2291696,52.0742724 37.6331522,52.6576087 C37.0371347,53.2409449 36.7391304,53.9384017 36.7391304,54.75 Z" id="Combined-Shape" fill="#FFD677"></path>
    </g>
</svg>